<svg width="900" height="1105" viewBox="0 0 900 1105" fill="none" xmlns="http://www.w3.org/2000/svg">
    <mask id="path-1-inside-1_36_10" fill="white">
        <rect y="205" width="900" height="900" rx="50"/>
    </mask>
    <rect y="205" width="900" height="900" rx="50" fill="#D9D9D9" stroke="black" stroke-width="180" mask="url(#path-1-inside-1_36_10)"/>
    <rect x="141.284" width="304" height="40" rx="20" transform="rotate(45 141.284 0)" fill="black"/>
    <rect x="545" y="214.96" width="304" height="40" rx="20" transform="rotate(-45 545 214.96)" fill="black"/>
    <rect x="90" y="294" width="240" height="721" fill="#FF0000"/>
    <rect x="570" y="294" width="240" height="721" fill="#0000FF"/>
    <rect x="330" y="294" width="240" height="721" fill="#00FF00"/>
    <path d="M679.4 615.8C688.467 616.333 697.533 617.667 706.6 619.8C716.2 621.933 724.733 625.933 732.2 631.8C739.667 637.667 743.4 645.4 743.4 655C743.4 660.333 742.333 666.2 740.2 672.6C738.6 679 736.2 683.533 733 686.2C728.733 690.467 723.133 693.667 716.2 695.8C709.8 697.4 703.4 698.733 697 699.8C690.6 700.333 685 700.6 680.2 700.6C675.933 700.6 673.533 700.6 673 700.6L246.6 701.4C234.333 701.933 221.533 701.933 208.2 701.4C195.4 700.867 184.467 696.867 175.4 689.4C163.133 680.333 157 669.933 157 658.2C157 650.733 159.4 643.533 164.2 636.6C169.533 629.133 176.467 624.067 185 621.4C196.2 617.667 207.667 616.067 219.4 616.6C231.133 616.6 243.133 616.333 255.4 615.8C268.2 615.267 279.133 615 288.2 615C297.8 615 306.867 615 315.4 615C324.467 615 333.8 615.267 343.4 615.8C353 615.8 364.467 615.8 377.8 615.8V567.8H294.6C289.267 567.8 283.933 567.8 278.6 567.8C273.8 567.267 268.733 566.733 263.4 566.2C256.467 565.667 249 565.4 241 565.4C233 565.4 226.067 563.267 220.2 559C218.6 559 217.8 558.467 217.8 557.4C212.467 553.133 208.733 547 206.6 539C205 530.467 204.2 523.267 204.2 517.4C203.667 507.8 202.867 498.2 201.8 488.6C201.267 479 201 469.667 201 460.6C201 446.733 201 433.133 201 419.8C201 406.467 202.333 393.133 205 379.8C206.6 371.267 209.267 364.6 213 359.8C216.733 354.467 222.6 350.2 230.6 347C238.067 344.333 245.533 342.467 253 341.4C260.467 340.333 267.933 339.267 275.4 338.2C284.467 337.133 293.8 336.867 303.4 337.4C313 337.933 322.6 338.2 332.2 338.2H484.2C497.533 338.2 507.667 338.2 514.6 338.2C522.067 338.2 528.733 338.2 534.6 338.2C540.467 338.2 546.867 338.2 553.8 338.2C561.267 337.667 571.667 337.4 585 337.4C589.8 337.4 594.333 337.4 598.6 337.4C603.4 337.4 608.2 337.667 613 338.2C623.133 338.733 633.533 339.533 644.2 340.6C654.867 341.667 664.733 344.333 673.8 348.6C684.467 352.867 691.667 360.067 695.4 370.2C699.133 379.8 701.267 389.933 701.8 400.6C702.867 412.867 702.867 425.133 701.8 437.4C701.267 449.133 701 461.133 701 473.4C700.467 484.067 699.933 494.733 699.4 505.4C699.4 516.067 698.067 526.733 695.4 537.4C693.8 543.267 691.933 548.6 689.8 553.4C687.667 557.667 683.4 560.867 677 563C671.133 565.133 665 566.467 658.6 567C652.2 567.533 646.067 567.8 640.2 567.8H489.8C490.333 575.267 490.6 583.533 490.6 592.6C491.133 601.133 491.4 608.867 491.4 615.8C506.333 615.8 522.333 615.8 539.4 615.8C556.467 615.267 573.533 615 590.6 615C607.667 615 623.933 615 639.4 615C654.867 615 668.2 615.267 679.4 615.8ZM677.8 923.8C686.333 924.867 693.8 927 700.2 930.2C706.6 933.4 711.133 939.267 713.8 947.8C720.2 967 713.267 980.6 693 988.6C686.6 991.267 680.2 992.867 673.8 993.4C667.4 993.933 661.267 994.2 655.4 994.2H283.4C272.733 994.2 261.533 993.933 249.8 993.4C238.6 993.4 227.133 993.133 215.4 992.6C204.2 992.067 194.867 988.067 187.4 980.6C179.933 973.133 175.667 963.267 174.6 951L172.2 895C171.667 889.133 171.667 882.2 172.2 874.2C172.733 866.2 175.4 859.533 180.2 854.2C187.667 846.2 197.533 841.133 209.8 839C222.6 836.867 234.867 835.8 246.6 835.8C254.067 835.8 266.333 835.8 283.4 835.8C301 835.8 324.733 836.067 354.6 836.6C384.467 836.6 421.267 836.6 465 836.6C509.267 836.6 561.8 836.6 622.6 836.6V807.8H229C223.667 807.8 218.867 807.8 214.6 807.8C210.333 807.8 206.067 807.267 201.8 806.2C197 805.133 192.733 804.067 189 803C185.267 801.933 182.067 799.267 179.4 795C171.933 783.8 170.067 772.333 173.8 760.6C175.4 756.333 177.8 753.133 181 751C184.2 748.333 187.933 746.2 192.2 744.6C196.467 743 200.467 741.933 204.2 741.4C208.467 740.867 212.2 740.333 215.4 739.8C223.4 738.2 231.667 737.4 240.2 737.4C248.2 737.4 256.733 737.4 265.8 737.4C274.867 737.4 285.8 737.4 298.6 737.4C311.933 737.4 327.667 737.667 345.8 738.2C363.933 738.2 386.067 738.2 412.2 738.2C438.867 738.2 469.8 738.2 505 738.2C540.733 738.2 582.6 738.2 630.6 738.2C657.8 738.2 678.6 742.467 693 751C707.4 759 714.6 772.333 714.6 791V847.8C714.6 855.267 712.733 862.733 709 870.2C705.8 877.133 699.933 883 691.4 887.8C684.467 892.067 677.533 894.467 670.6 895C663.667 895 656.733 895 649.8 895H270.6V923.8H677.8ZM296.2 465.4C296.2 468.067 296.2 470.733 296.2 473.4C296.733 475.533 297.533 477.133 298.6 478.2C299.667 479.267 301.533 480.067 304.2 480.6C306.867 480.6 309.533 480.6 312.2 480.6C314.867 480.6 318.067 480.333 321.8 479.8H532.2C539.667 480.333 546.867 480.867 553.8 481.4C559.667 481.933 565.8 482.2 572.2 482.2C579.133 482.2 585 481.667 589.8 480.6C595.667 480.067 598.867 478.733 599.4 476.6C600.467 473.933 601.533 470.2 602.6 465.4C603.133 461.133 603.4 456.333 603.4 451C603.4 445.133 601.8 440.067 598.6 435.8C594.867 431.533 589.533 429.4 582.6 429.4C575.667 428.867 569.8 428.867 565 429.4H492.2C490.6 429.4 484.2 429.4 473 429.4C461.8 429.4 449.533 429.4 436.2 429.4C423.4 429.4 411.4 429.4 400.2 429.4C389 429.4 382.6 429.4 381 429.4C369.8 428.333 358.6 428.067 347.4 428.6C336.2 428.6 324.733 428.867 313 429.4C308.2 429.4 304.733 429.667 302.6 430.2C300.467 430.2 298.867 432.6 297.8 437.4C296.733 441.133 296.2 444.867 296.2 448.6C296.2 451.8 296.2 455 296.2 458.2V465.4Z" fill="white"/>
</svg>
